<svg xmlns="http://www.w3.org/2000/svg" width="214.146" height="254" fill="none"><defs><filter id="a" width="214.146" height="254" x="0" y="0" color-interpolation-filters="sRGB" filterUnits="userSpaceOnUse"><feFlood flood-opacity="0" result="BackgroundImageFix"/><feGaussianBlur in="BackgroundImage" stdDeviation="16.667"/><feComposite in2="SourceAlpha" operator="in" result="effect_backgroundBlur_1"/><feColorMatrix in="SourceAlpha" result="hardAlpha" values="0 0 0 0 0 0 0 0 0 0 0 0 0 0 0 0 0 0 127 0"/><feOffset/><feGaussianBlur stdDeviation="7.333"/><feComposite in2="hardAlpha" k2="-1" k3="1" operator="out"/><feColorMatrix values="0 0 0 0 0.60392 0 0 0 0 0.7451 0 0 0 0 1 0 0 0 0.56 0"/><feBlend in2="effect_backgroundBlur_1" result="effect_dropShadow_2"/><feBlend in="SourceGraphic" in2="effect_dropShadow_2" result="shape"/></filter></defs><g filter="url(#a)" opacity=".95"><mask id="c" fill="#fff"><path fill-rule="evenodd" d="M44.147 22h135.999c6.627 0 12 5.373 12 12v186c0 6.627-5.373 12-12 12h-136c-6.627 0-12-5.373-12-12V101.286l-9.184-5.576c-1.282-.78-1.282-2.64 0-3.42l9.185-5.576V34c0-6.627 5.372-12 12-12" clip-rule="evenodd"/></mask><path fill="none" d="M44.147 22h135.999c6.627 0 12 5.373 12 12v186c0 6.627-5.373 12-12 12h-136c-6.627 0-12-5.373-12-12V101.286l-9.184-5.576c-1.282-.78-1.282-2.64 0-3.42l9.185-5.576V34c0-6.627 5.372-12 12-12" clip-rule="evenodd" mask="url(#c)"/><path fill="#FFF" fill-rule="evenodd" d="M44.147 22h135.999c6.627 0 12 5.373 12 12v186c0 6.627-5.373 12-12 12h-136c-6.627 0-12-5.373-12-12V101.286l-9.184-5.576c-1.282-.78-1.282-2.64 0-3.42l9.185-5.576V34c0-6.627 5.372-12 12-12" clip-rule="evenodd" mask="url(#c)"/></g></svg>