<svg xmlns="http://www.w3.org/2000/svg" width="513.003" height="76.612" fill="none"><defs><linearGradient id="a" x1="256.501" x2="256.501" y1=".949" y2="53.77" gradientUnits="userSpaceOnUse"><stop stop-color="#8DA5FF"/><stop offset="1" stop-color="#362CFF" stop-opacity="0"/></linearGradient><linearGradient id="b" x1="256.503" x2="256.503" y1=".949" y2="72" gradientUnits="userSpaceOnUse"><stop stop-color="#F1A6FF"/><stop offset="1" stop-color="#FFA7FB" stop-opacity="0"/></linearGradient><linearGradient id="c" x1="256.503" x2="256.503" y1="0" y2="76.612" gradientUnits="userSpaceOnUse"><stop stop-color="#A6F0FF"/><stop offset="1" stop-color="#A7F5FF" stop-opacity="0"/></linearGradient></defs><path fill="url(#a)" fill-rule="evenodd" d="M0 27.26c28.4 0 67.11-22.29 127-22.29 59.88 0 57.46 23.64 130.04 22.29C329.62 25.92 356.27.94 401.85.94S513 31.82 513 31.82V71.8H0s-.01-26.01 0-44.54" opacity=".294"/><path fill="url(#b)" fill-rule="evenodd" d="M385.16 21.76c-40.95 0-81.27-16.1-119.86-16.1s-49.3 16.1-87.27 16.1S106.42 5 64.08 5 0 28.87 0 28.87V72h513V.94s-86.88 20.82-127.84 20.82" opacity=".313"/><path fill="url(#c)" fill-rule="evenodd" d="M460.16 16.76c-40.95 0-55.4-1.92-93.2-9.42S291 16.76 253.03 16.76 181.42 0 139.08 0 0 21.79 0 21.79v54.82h513V7.34s-11.88 9.42-52.84 9.42" opacity=".313"/></svg>