<svg xmlns="http://www.w3.org/2000/svg" width="157.012" height="43.258" fill="none"><defs><filter id="a" width="157.012" height="43.258" x="0" y="0" color-interpolation-filters="sRGB" filterUnits="userSpaceOnUse"><feFlood flood-opacity="0" result="BackgroundImageFix"/><feGaussianBlur in="BackgroundImage" stdDeviation="4.53"/><feComposite in2="SourceAlpha" operator="in" result="effect_backgroundBlur_1"/><feColorMatrix in="SourceAlpha" result="hardAlpha" values="0 0 0 0 0 0 0 0 0 0 0 0 0 0 0 0 0 0 127 0"/><feOffset dy="2"/><feGaussianBlur/><feComposite in2="hardAlpha" k2="-1" k3="1" operator="out"/><feColorMatrix values="0 0 0 0 0.77647 0 0 0 0 0.7098 0 0 0 0 1 0 0 0 1 0"/><feBlend in2="effect_backgroundBlur_1" result="effect_dropShadow_2"/><feBlend in="SourceGraphic" in2="effect_dropShadow_2" result="shape"/></filter><filter id="c" width="69.672" height="37.547" x="44.125" y="2.633" color-interpolation-filters="sRGB" filterUnits="userSpaceOnUse"><feFlood flood-opacity="0" result="BackgroundImageFix"/><feColorMatrix in="SourceAlpha" result="hardAlpha" values="0 0 0 0 0 0 0 0 0 0 0 0 0 0 0 0 0 0 127 0"/><feMorphology radius="1" result="BackgroundImageFix"/><feOffset/><feGaussianBlur stdDeviation="3.333"/><feComposite in2="hardAlpha" k2="-1" k3="1" operator="out"/><feColorMatrix values="0 0 0 0 0.47451 0 0 0 0 0.098039 0 0 0 0 1 0 0 0 0.24 0"/><feBlend in2="BackgroundImageFix" result="effect_dropShadow_1"/><feBlend in="SourceGraphic" in2="effect_dropShadow_1" result="shape"/></filter><linearGradient id="b" x1="147.071" x2="7.705" y1="49.157" y2="-13.677" gradientUnits="userSpaceOnUse"><stop stop-color="#4075FF"/><stop offset=".605" stop-color="#663FFB"/><stop offset="1" stop-color="#E687FF"/></linearGradient></defs><g filter="url(#a)"><rect width="157.011" height="41.258" fill="url(#b)" rx="20.629"/><rect width="156.011" height="40.258" x=".5" y=".5" rx="20.129"/></g><g filter="url(#c)"><path fill="#FFF" fill-rule="evenodd" d="M56.81 16.77h-1.22v1.59h2.33q-.23.19-.48.37-1.06.77-2.32 1.26.41.83.73 1.87 1.75-1.04 2.91-2.26v1.5l-.84-.08q-.19.62-.45 1.23h-2.05v1.6h1.28q-.42.77-.95 1.54 1.2.5 2.28.97-1.25.49-2.88.66.55 1.06.83 1.92 2.38-.48 4.09-1.62 1.11.55 2.05 1.09l.55-.92q.4.41.76.85.34.4.64.83.55-.3 1.06-.66 1.06-.76 1.94-1.79.49.65 1.08 1.2.59.56 1.28 1.02.8-1.44 1.36-2.08-1.45-.84-2.45-2.01 1.42-2.66 1.76-6.8h.63v-1.91h-3.91q.35-1.1.66-2.31l-2.14-.2q-.93 3.76-2.21 6.14-.88-.51-1.85-1.03l-.53.72v-1.1h2.73v-1.59h-.91q.78-.94 1.3-1.83l-1.47-.87q-.53.9-1.31 1.85l1.3.85h-1.64v-3.06h-1.99v3.06h-1.75l1.41-.85q-.83-1.23-1.32-1.81l-1.4.88q.69.94 1.11 1.78m23.51-2.5.44-.56h-2.72q-2 3.31-6.89 5.4.69.86 1.41 1.97.67-.34 1.29-.7v5.84q0 1.14.57 1.76.66.7 2.06.71h6.36q1.24 0 1.95-.61.49-.42.74-1.14.29-.87.64-2.3-1.19-.42-2.13-.84-.19 1.14-.39 1.92-.13.44-.42.67-.34.27-.89.27h-5.08q-.76 0-1.06-.37-.2-.25-.2-.66v-4.25h5.45q0 .33-.03.89-.01.39-.21.61-.24.27-.78.28-.56.01-2-.08.28.92.5 2.09 1.38.04 2.28-.04.87.01 1.42-.41.83-.64.88-2.31.08-1.11.11-2.44.86.52 1.8.95.73-1.04 1.43-1.98-4.29-1.64-6.53-4.67m12.72-.47h-1.86v4.7h-1.09v-4.36h-1.83v7.41q.08 4.41-1.01 6.31.89.66 1.65 1.3 1.2-2.3 1.2-5.7h1.08v5.4h1.86v-7.15h-2.95v-1.46h3.76V18.5h-.81zm9.56 2.14-.56-2.05q-2.64.66-7.73.93v5.89q.11 4.57-1.24 6.54.71.92 1.3 1.83 1.89-2.45 1.89-7.97v-.84H100q-.36 1.77-1.11 3.21-.75-1.34-1.19-3.12l-1.39 1.27q.54 2 1.46 3.58-.03.03-.05.06-.98 1.19-2.33 2.06.81 1.19 1.12 1.74 1.38-1 2.45-2.2.43.51.92.95.75.7 1.63 1.25l1.28-2q-.78-.33-1.45-.81-.63-.44-1.17-1.01.06-.1.12-.21 1.35-2.2 1.8-4.96v-1.83h-5.83v-1.5q3.95-.36 6.34-.81m-27.26 3.47q2.25-1.58 3.69-3.5.19.26.4.51 1.41 1.7 3.3 2.99zm-8.27 3.44q-.78-1.75-1.09-4.35.09-.22.17-.45h2.03q-.18 2.75-1.11 4.8m-7.11-1.39h.79v-1.19q1.12.67 2.09 1.33l.46-.7q.48.67.84 1.29.28-.45.55-.94.41 1.94 1.17 3.51-.32.37-.67.71-1 .95-2.27 1.62l.31-.51-1.56-.62q.92-.98 1.53-2.25v-1.46h-3.64q.22-.41.4-.79m-.09 3.81-1.62-.61.46-.81h2.32q-.23.4-.52.76-.29.35-.64.66"/></g><g opacity=".93"><path fill="none" d="M141.32 15.7h-.03a.98.98 0 0 1 0-1.41c.39-.4 1.02-.4 1.41 0v.03l-.69.69 5.22 5.22-5.22 5.21.69.7v.02c-.39.4-1.02.4-1.41 0a.98.98 0 0 1 0-1.41h.03l.68.68V15.02z"/><path stroke="#FFF" stroke-linecap="round" stroke-linejoin="round" stroke-width="2" d="m142 15 5.23 5.23-5.23 5.23"/></g></svg>