<svg xmlns="http://www.w3.org/2000/svg" width="157.012" height="43.258" fill="none"><defs><filter id="a" width="157.012" height="43.258" x="0" y="0" color-interpolation-filters="sRGB" filterUnits="userSpaceOnUse"><feFlood flood-opacity="0" result="BackgroundImageFix"/><feGaussianBlur in="BackgroundImage" stdDeviation="4.53"/><feComposite in2="SourceAlpha" operator="in" result="effect_backgroundBlur_1"/><feColorMatrix in="SourceAlpha" result="hardAlpha" values="0 0 0 0 0 0 0 0 0 0 0 0 0 0 0 0 0 0 127 0"/><feOffset dy="2"/><feGaussianBlur/><feComposite in2="hardAlpha" k2="-1" k3="1" operator="out"/><feColorMatrix values="0 0 0 0 0.77647 0 0 0 0 0.7098 0 0 0 0 1 0 0 0 1 0"/><feBlend in2="effect_backgroundBlur_1" result="effect_dropShadow_2"/><feBlend in="SourceGraphic" in2="effect_dropShadow_2" result="shape"/></filter><filter id="c" width="85.641" height="37.484" x="36.156" y="2.695" color-interpolation-filters="sRGB" filterUnits="userSpaceOnUse"><feFlood flood-opacity="0" result="BackgroundImageFix"/><feColorMatrix in="SourceAlpha" result="hardAlpha" values="0 0 0 0 0 0 0 0 0 0 0 0 0 0 0 0 0 0 127 0"/><feMorphology radius="1" result="BackgroundImageFix"/><feOffset/><feGaussianBlur stdDeviation="3.333"/><feComposite in2="hardAlpha" k2="-1" k3="1" operator="out"/><feColorMatrix values="0 0 0 0 0.47451 0 0 0 0 0.098039 0 0 0 0 1 0 0 0 0.24 0"/><feBlend in2="BackgroundImageFix" result="effect_dropShadow_1"/><feBlend in="SourceGraphic" in2="effect_dropShadow_1" result="shape"/></filter><linearGradient id="b" x1="147.071" x2="7.705" y1="49.157" y2="-13.677" gradientUnits="userSpaceOnUse"><stop stop-color="#4075FF"/><stop offset=".605" stop-color="#663FFB"/><stop offset="1" stop-color="#E687FF"/></linearGradient></defs><g filter="url(#a)"><rect width="157.011" height="41.258" fill="url(#b)" rx="20.629"/><rect width="156.011" height="40.258" x=".5" y=".5" rx="20.129"/></g><g filter="url(#c)"><path fill="#FFF" fill-rule="evenodd" d="M87.37 16.44h-8.12v2.06h8.27q.38 5.71 1.26 8.17.56 1.56 1.64 2.13.63.34 1.45.34 1.01 0 1.6-.49.13-.11.24-.25.61-.75 1.04-3.68-.97-.4-2.05-1.09-.15 1.27-.31 2.04t-.28.93q-.1.15-.22.17h-.04q-.52 0-1.11-1.59t-.94-6.68h4.62v-2.06h-1.6l.83-.64q-.86-1.03-1.78-1.98l-1.39 1.04q.66.71 1.33 1.58h-2.15q-.08-1.37-.12-2.75H87.2zm-26 4.98q.84-1.18 1.5-2-1.55-1.05-2.82-2.39-1.41-1.48-2.46-3.29l-1.94 1q.33.59.69 1.16 1.37 2.16 3.27 3.99h-9.14q.23-.2.45-.41 2.17-2.08 3.65-4.87l-2.09-.9q-.04.08-.09.16-1.79 3.32-5.24 5.74.7.75 1.42 1.77.41-.28.8-.57v1.24h2.23q-.14 1.71-.53 2.47-.4.76-1.3 1.44t-2.29 1.23q.66.69 1.62 1.98 1.61-.69 2.66-1.64 1.06-.94 1.56-2.11t.63-3.37h3.86q-.1 3.45-.24 3.93-.07.21-.21.33-.18.15-.47.15-.91 0-2.94-.18.19 1.07.33 2.36 1.43.05 3.04.05 1.18 0 1.83-.57.11-.09.21-.2.47-.54.56-1.4.12-1.04.33-6.03.54.48 1.12.93m9.25 7.66h2.17v-7.17h2.58v2.5q0 .62-.31.9-.25.22-.71.22-.21 0-.96-.06.17.8.37 2.06 1.49 0 2.18-.12.35-.07.63-.24t.5-.46q.43-.56.43-1.57v-5.06h-4.71v-2h-2.17v2h-2.39q.75-1.09 1.36-2.25.02-.05.05-.11h8.98v-2.08h-8.03q.33-.81.59-1.65L69 13.74q-.27.97-.65 1.9H63.5v2.08h3.82q-1.5 2.6-4.04 4.92.32.85.72 2.19 1.06-.93 2-1.94v5h2.15v-5.98h2.47zm30.42-15.28h-1.86v4.7h-1.09v-4.36h-1.83v7.41q.08 4.41-1.01 6.31.89.66 1.65 1.3 1.2-2.3 1.2-5.7h1.08v5.4h1.86v-7.15h-2.95v-1.46h3.76V18.5h-.81zm9.56 2.14-.56-2.05q-2.64.66-7.73.93v5.89q.11 4.57-1.24 6.54.71.92 1.3 1.83 1.89-2.45 1.89-7.97v-.84H108q-.36 1.77-1.11 3.21-.75-1.34-1.19-3.12l-1.39 1.27q.54 2 1.46 3.58-.03.03-.05.06-.98 1.19-2.33 2.06.81 1.19 1.12 1.74 1.38-1 2.45-2.2.43.51.92.95.75.7 1.63 1.25l1.28-2q-.78-.33-1.45-.81-.63-.44-1.17-1.01.06-.1.12-.21 1.35-2.2 1.8-4.96v-1.83h-5.83v-1.5q3.95-.36 6.34-.81M87 20.21h-7.07v2.04h2.49v3.33l-3.19.38.27 2.32 8.21-1.2q-.01-.72.04-2.25l-3.1.46v-3.04H87z"/></g><path fill="none" d="M141.32 15.7h-.03a.98.98 0 0 1 0-1.41c.39-.4 1.02-.4 1.41 0v.03l-.69.69 5.22 5.22-5.22 5.21.69.7v.02c-.39.4-1.02.4-1.41 0a.98.98 0 0 1 0-1.41h.03l.68.68V15.02z"/><path stroke="#FFF" stroke-linecap="round" stroke-linejoin="round" stroke-width="2" d="m142 15 5.23 5.23-5.23 5.23"/></svg>