<svg xmlns="http://www.w3.org/2000/svg" width="157.012" height="43.258" fill="none"><defs><filter id="a" width="157.012" height="43.258" x="0" y="0" color-interpolation-filters="sRGB" filterUnits="userSpaceOnUse"><feFlood flood-opacity="0" result="BackgroundImageFix"/><feGaussianBlur in="BackgroundImage" stdDeviation="4.53"/><feComposite in2="SourceAlpha" operator="in" result="effect_backgroundBlur_1"/><feColorMatrix in="SourceAlpha" result="hardAlpha" values="0 0 0 0 0 0 0 0 0 0 0 0 0 0 0 0 0 0 127 0"/><feOffset dy="2"/><feGaussianBlur/><feComposite in2="hardAlpha" k2="-1" k3="1" operator="out"/><feColorMatrix values="0 0 0 0 0.77647 0 0 0 0 0.7098 0 0 0 0 1 0 0 0 1 0"/><feBlend in2="effect_backgroundBlur_1" result="effect_dropShadow_2"/><feBlend in="SourceGraphic" in2="effect_dropShadow_2" result="shape"/></filter><filter id="c" width="93.508" height="39.25" x="32.844" y="2.805" color-interpolation-filters="sRGB" filterUnits="userSpaceOnUse"><feFlood flood-opacity="0" result="BackgroundImageFix"/><feColorMatrix in="SourceAlpha" result="hardAlpha" values="0 0 0 0 0 0 0 0 0 0 0 0 0 0 0 0 0 0 127 0"/><feMorphology radius="1" result="BackgroundImageFix"/><feOffset/><feGaussianBlur stdDeviation="3.333"/><feComposite in2="hardAlpha" k2="-1" k3="1" operator="out"/><feColorMatrix values="0 0 0 0 0.47451 0 0 0 0 0.098039 0 0 0 0 1 0 0 0 0.24 0"/><feBlend in2="BackgroundImageFix" result="effect_dropShadow_1"/><feBlend in="SourceGraphic" in2="effect_dropShadow_1" result="shape"/></filter><linearGradient id="b" x1="147.071" x2="7.705" y1="49.157" y2="-13.677" gradientUnits="userSpaceOnUse"><stop stop-color="#4075FF"/><stop offset=".605" stop-color="#663FFB"/><stop offset="1" stop-color="#E687FF"/></linearGradient></defs><g filter="url(#a)"><rect width="157.011" height="41.258" fill="url(#b)" rx="20.629"/><rect width="156.011" height="40.258" x=".5" y=".5" rx="20.129"/></g><g filter="url(#c)"><path fill="#FFF" fill-rule="evenodd" d="M105.6 13.8h-1.86v4.7h-1.1v-4.36h-1.82v7.41q.07 4.41-1.02 6.31.89.66 1.66 1.3 1.19-2.3 1.19-5.7h1.09v5.4h1.86v-7.15h-2.96v-1.46h3.77V18.5h-.81zm9.56 2.14-.56-2.05q-2.64.66-7.74.93v5.89q.11 4.57-1.23 6.54.7.92 1.3 1.83 1.89-2.45 1.89-7.97v-.84h3.73q-.35 1.77-1.1 3.21-.75-1.34-1.2-3.12l-1.39 1.27q.54 2 1.46 3.58-.02.03-.05.06-.98 1.19-2.33 2.06.81 1.19 1.13 1.74 1.38-1 2.44-2.2.43.51.92.95.75.7 1.64 1.25l1.28-2q-.78-.33-1.46-.81-.63-.44-1.17-1.01.07-.1.13-.21 1.35-2.2 1.79-4.96v-1.83h-5.82v-1.5q3.95-.36 6.34-.81m-44.53 8.97q-.91-.3-1.71-.96v2.58q1.33.68 3.41.68 2.27 0 3.51-.92.43-.32.71-.73.52-.79.52-1.92 0-.82-.32-1.49-.14-.3-.35-.56-.68-.86-2.48-1.63-1.54-.68-1.93-1.07-.31-.31-.37-.66-.02-.1-.02-.2 0-.22.07-.4.14-.32.5-.54.57-.34 1.52-.34 1.29 0 2.32.51.27.14.53.31v-2.42q-1.2-.46-2.97-.46-2.12 0-3.41.93-.55.4-.86.94-.42.72-.42 1.69 0 .62.21 1.16.56 1.46 2.62 2.34 1.81.75 2.23 1.18.36.37.41.79.01.07.01.14 0 .21-.07.39-.12.31-.46.55-.53.36-1.58.36-.85 0-1.62-.25m8.72-7.58q-1 1.57-1 3.77 0 1.97.87 3.41.32.53.75.99.56.58 1.23.97 1.29.74 3 .74.94 0 1.75-.22l1.61 1.64h3.82l-3.08-2.97q.1-.1.2-.21.36-.39.65-.83 1-1.56 1-3.77 0-2.08-.93-3.58-.28-.45-.65-.85-.55-.6-1.21-.99-1.27-.74-2.97-.74-1.83 0-3.18.81-.66.39-1.2.98-.37.39-.66.85m-24.43 2.32V27h2.54V14.89h-3.64l-2.62 7.3q-.26.73-.5 1.72h-.06q-.11-.8-.44-1.7l-2.61-7.32h-3.75V27h2.33v-6.85q0-1.53-.1-3.05h.07q.27 1.33.38 1.63L49.54 27h2.06l2.98-8.35q.14-.39.38-1.55h.06q-.1 1.54-.1 2.55M92.2 27h7.1v-2.11h-4.52v-10H92.2zm-10.29-3.15q-.85-1.12-.85-2.89t.85-2.89l.02-.02q.36-.47.84-.75.66-.38 1.55-.38.9 0 1.56.41.42.26.75.69.82 1.1.82 2.99 0 1.81-.85 2.89-.3.39-.7.64-.69.43-1.65.43-.85 0-1.48-.36-.49-.27-.86-.76m-17.35 3.92 3.56-9.42h-2.5l-1.73 5.43q-.2.68-.25 1.09h-.05q-.07-.61-.23-1.1l-1.69-5.42h-2.79l3.49 8.63-.48 1.13q-.23.54-.63.79-.35.21-.82.21-.4 0-.76-.12-.18-.07-.36-.17v2.03q.54.2 1.52.2.61 0 1.15-.2 1.63-.62 2.57-3.08"/></g><g opacity=".93"><path fill="none" d="M141.32 15.7h-.03a.98.98 0 0 1 0-1.41c.39-.4 1.02-.4 1.41 0v.03l-.69.69 5.22 5.22-5.22 5.21.69.7v.02c-.39.4-1.02.4-1.41 0a.98.98 0 0 1 0-1.41h.03l.68.68V15.02z"/><path stroke="#FFF" stroke-linecap="round" stroke-linejoin="round" stroke-width="2" d="m142 15 5.23 5.23-5.23 5.23"/></g></svg>