<svg xmlns="http://www.w3.org/2000/svg" width="157.012" height="43.258" fill="none"><defs><filter id="a" width="157.012" height="43.258" x="0" y="0" color-interpolation-filters="sRGB" filterUnits="userSpaceOnUse"><feFlood flood-opacity="0" result="BackgroundImageFix"/><feGaussianBlur in="BackgroundImage" stdDeviation="4.53"/><feComposite in2="SourceAlpha" operator="in" result="effect_backgroundBlur_1"/><feColorMatrix in="SourceAlpha" result="hardAlpha" values="0 0 0 0 0 0 0 0 0 0 0 0 0 0 0 0 0 0 127 0"/><feOffset dy="2"/><feGaussianBlur/><feComposite in2="hardAlpha" k2="-1" k3="1" operator="out"/><feColorMatrix values="0 0 0 0 0.77647 0 0 0 0 0.7098 0 0 0 0 1 0 0 0 1 0"/><feBlend in2="effect_backgroundBlur_1" result="effect_dropShadow_2"/><feBlend in="SourceGraphic" in2="effect_dropShadow_2" result="shape"/></filter><filter id="c" width="129.469" height="39.25" x="14.863" y="2.805" color-interpolation-filters="sRGB" filterUnits="userSpaceOnUse"><feFlood flood-opacity="0" result="BackgroundImageFix"/><feColorMatrix in="SourceAlpha" result="hardAlpha" values="0 0 0 0 0 0 0 0 0 0 0 0 0 0 0 0 0 0 127 0"/><feMorphology radius="1" result="BackgroundImageFix"/><feOffset/><feGaussianBlur stdDeviation="3.333"/><feComposite in2="hardAlpha" k2="-1" k3="1" operator="out"/><feColorMatrix values="0 0 0 0 0.47451 0 0 0 0 0.098039 0 0 0 0 1 0 0 0 0.24 0"/><feBlend in2="BackgroundImageFix" result="effect_dropShadow_1"/><feBlend in="SourceGraphic" in2="effect_dropShadow_1" result="shape"/></filter><linearGradient id="b" x1="147.071" x2="7.705" y1="49.157" y2="-13.677" gradientUnits="userSpaceOnUse"><stop stop-color="#4075FF"/><stop offset=".605" stop-color="#663FFB"/><stop offset="1" stop-color="#E687FF"/></linearGradient></defs><g filter="url(#a)"><rect width="157.011" height="41.258" fill="url(#b)" rx="20.629"/><rect width="156.011" height="40.258" x=".5" y=".5" rx="20.129"/></g><g filter="url(#c)"><path fill="#FFF" fill-rule="evenodd" d="M123.58 13.8h-1.86v4.7h-1.1v-4.36h-1.82v7.41q.07 4.41-1.02 6.31.89.66 1.66 1.3 1.19-2.3 1.19-5.7h1.09v5.4h1.86v-7.15h-2.96v-1.46h3.77V18.5h-.81zm9.56 2.14-.56-2.05q-2.64.66-7.74.93v5.89q.11 4.57-1.23 6.54.7.92 1.3 1.83 1.89-2.45 1.89-7.97v-.84h3.73q-.35 1.77-1.1 3.21-.75-1.34-1.2-3.12l-1.39 1.27q.54 2 1.46 3.58-.02.03-.05.06-.98 1.19-2.33 2.06.81 1.19 1.13 1.74 1.38-1 2.44-2.2.43.51.92.95.75.7 1.64 1.25l1.28-2q-.78-.33-1.46-.81-.63-.44-1.17-1.01.07-.1.13-.21 1.35-2.2 1.79-4.96v-1.83h-5.82v-1.5q3.95-.36 6.34-.81m-44.53 8.97q-.91-.3-1.7-.96v2.58q1.32.68 3.4.68 2.27 0 3.51-.92.43-.32.71-.73.52-.79.52-1.92 0-.82-.32-1.49-.14-.3-.35-.56-.68-.86-2.48-1.63-1.54-.68-1.93-1.07-.31-.31-.37-.66-.02-.1-.02-.2 0-.22.07-.4.14-.32.5-.54.57-.34 1.52-.34 1.29 0 2.32.51.27.14.53.31v-2.42q-1.2-.46-2.97-.46-2.12 0-3.41.93-.55.4-.86.94-.42.72-.42 1.69 0 .62.21 1.16.56 1.46 2.62 2.34 1.81.75 2.23 1.18.36.37.41.79.01.07.01.14 0 .21-.07.39-.12.31-.46.55-.53.36-1.58.36-.85 0-1.62-.25m8.72-7.58q-1 1.57-1 3.77 0 1.97.87 3.41.32.53.75.99.56.58 1.23.97 1.29.74 3 .74.94 0 1.75-.22l1.61 1.64h3.82l-3.08-2.97q.1-.1.2-.21.36-.39.65-.83 1-1.56 1-3.77 0-2.08-.93-3.58-.28-.45-.65-.85-.55-.6-1.21-.99-1.27-.74-2.97-.74-1.83 0-3.18.81-.66.39-1.2.98-.37.39-.66.85M28.44 27v-4.22h1.32q1.63.03 2.82-.67.31-.18.59-.41.59-.48.92-1.1.45-.82.45-1.88 0-1.6-.79-2.53-1.1-1.3-3.73-1.3h-4.16V27zm81.74 0h7.1v-2.11h-4.52v-10h-2.58zm-52.81.21q1.15 0 1.72-.32v-1.88q-.45.25-.87.25t-.68-.2q-.42-.33-.42-1.18v-3.64h1.97v-1.89h-1.97v-2.61l-2.5.72v1.89h-1.43v1.89h1.43v4.08q0 1.51.75 2.23.69.66 2 .66M28.44 20.8v-3.91h1.14q1.29 0 1.84.64.41.48.41 1.29 0 .85-.42 1.34-.56.64-1.86.64zm71.45 3.05q-.85-1.12-.85-2.89t.85-2.89l.02-.02q.36-.47.84-.75.67-.38 1.55-.38.9 0 1.56.41.43.26.75.69.82 1.1.82 2.99 0 1.81-.84 2.89-.31.39-.71.64-.69.43-1.65.43-.85 0-1.48-.36-.49-.27-.86-.76m-64.02-3.94q-.79 1.12-.79 2.8 0 1.65.77 2.74.21.3.47.55.21.21.44.38 1.15.83 2.9.83 1.73 0 2.89-.82.27-.2.52-.44.26-.27.47-.57.79-1.14.79-2.81 0-1.55-.72-2.61-.22-.33-.51-.62-.22-.21-.46-.38-1.13-.82-2.85-.82-1.81 0-3 .86-.23.17-.44.36-.26.26-.48.55m12.55 5.55q-1.24 0-2.54-.79v2.09q1.2.45 2.6.45 1.79 0 2.86-.74.5-.35.77-.83.3-.54.3-1.25 0-.63-.26-1.13-.02-.04-.05-.08l-.1-.16q-.3-.41-.79-.68-.59-.32-1.77-.71-.97-.33-1.08-.84-.01-.06-.01-.12 0-.11.04-.21.08-.21.33-.36.36-.21.97-.21.75 0 1.43.23.41.14.79.36V18.5q-.25-.08-.5-.14-.87-.22-1.79-.22-1.68 0-2.71.73-.5.35-.76.83-.27.51-.27 1.16 0 .87.41 1.44.09.12.19.22.6.62 2.21 1.12 1.21.37 1.29.91v.08q0 .18-.07.33-.27.5-1.49.5m19.48 3.9q1.01-1.25 1.01-3.32v-7.69H66.4v1.04h-.04q-.33-.52-.8-.82-.66-.43-1.59-.43-.97 0-1.74.4-.62.32-1.1.9-.02.02-.03.04-1.05 1.3-1.05 3.44 0 1.91.92 3.06l.06.06q.39.47.89.75.74.42 1.72.42t1.69-.44q.61-.36 1.03-1.04h.04v.72q0 1.03-.49 1.69-.12.17-.27.31l-.14.12q-.74.6-1.98.6h-.14q-1.3-.04-2.57-.78v2.16q1.03.5 2.78.5 2.55 0 3.92-1.27l.03-.03q.2-.19.36-.39m11.98-5.97h5.69v-1.07q0-1.79-.87-2.87-.08-.1-.17-.19-.22-.25-.49-.44-.94-.68-2.38-.68-1.03 0-1.86.41-.66.32-1.2.89-.28.29-.5.63-.72 1.14-.72 2.73 0 1.84.9 2.96.12.15.25.28.15.16.33.3 1.1.87 2.87.87 1.92 0 3.1-.67v-1.85q-.23.15-.47.26-.93.44-2.06.44-1.3 0-1.9-.65-.46-.49-.52-1.35m-4.3-3.01q.66 0 1.12.26v-2.33q-.23-.1-.68-.1-.66 0-1.16.28-.74.43-1.11 1.49h-.03v-1.63h-2.53V27h2.53v-4.16q0-1.15.5-1.81.23-.29.53-.45.36-.2.83-.2m7.07-.21q.57.47.57 1.64h-3.35q.13-.86.61-1.39l.02-.02q.34-.36.75-.48.19-.05.4-.05.62 0 1 .3m-44.26 4.69q-.76-.62-.76-2.18 0-1.24.55-1.92.19-.23.42-.38.46-.3 1.13-.3.8 0 1.28.39.75.61.75 2.14 0 1.68-.81 2.3-.47.36-1.21.36-.84 0-1.35-.41m27.79-3.78q.24.46.24 1.04v.76q0 1-.48 1.65-.03.04-.06.07-.26.33-.61.5t-.79.17q-.45 0-.81-.19-.31-.16-.55-.46-.52-.66-.52-1.79 0-1.3.54-2.03.25-.34.58-.52.38-.2.87-.2.4 0 .73.15.32.15.58.44.17.19.28.41"/></g><g opacity=".93"><path fill="none" d="M141.32 16.7h-.03a.98.98 0 0 1 0-1.41c.39-.4 1.02-.4 1.41 0v.03l-.69.69 5.22 5.22-5.22 5.21.69.7v.02c-.39.4-1.02.4-1.41 0a.98.98 0 0 1 0-1.41h.03l.68.68V16.02z"/><path stroke="#FFF" stroke-linecap="round" stroke-linejoin="round" stroke-width="2" d="m142 16 5.23 5.23-5.23 5.23"/></g></svg>