<svg xmlns="http://www.w3.org/2000/svg" width="97" height="97" fill="none"><defs><linearGradient id="d" x1="15.977" x2="80.055" y1="16.14" y2="88.051" gradientUnits="userSpaceOnUse"><stop stop-color="#5FABFD"/><stop offset="1" stop-color="#7355FF"/></linearGradient><linearGradient id="e" x1="34.398" x2="63.033" y1="41.286" y2="41.286" gradientUnits="userSpaceOnUse"><stop stop-color="#FFF"/><stop offset="1" stop-color="#FFF"/></linearGradient><linearGradient id="f" x1="24.947" x2="75.059" y1="58.857" y2="58.857" gradientUnits="userSpaceOnUse"><stop stop-color="#FFF"/><stop offset="1" stop-color="#FFF"/></linearGradient><filter id="a" width="97" height="97" x="0" y="0" color-interpolation-filters="sRGB" filterUnits="userSpaceOnUse"><feFlood flood-opacity="0" result="BackgroundImageFix"/><feBlend in="SourceGraphic" in2="BackgroundImageFix" result="shape"/><feGaussianBlur result="effect_layerBlur_1" stdDeviation=".667"/></filter></defs><g filter="url(#a)" opacity=".631"><circle cx="48.5" cy="48.5" r="46.5" fill="#D5E5FF" fill-opacity=".706"/></g><circle cx="48.5" cy="48.5" r="46"/><circle cx="48.051" cy="48.051" r="40" fill="none"/><circle cx="48.051" cy="48.051" r="40" fill="none"/><circle cx="48.051" cy="48.051" r="40" fill="url(#d)"/><circle cx="48.051" cy="48.051" r="39.5"/><path fill="url(#e)" fill-rule="evenodd" d="M47.57 54.57c4.71 0 8.57-3.74 8.57-8.31V36.3c0-4.57-3.86-8.3-8.57-8.3-4.72 0-8.57 3.73-8.57 8.3v9.96c0 4.57 3.85 8.31 8.57 8.31"/><path fill="url(#f)" fill-rule="evenodd" d="M62.97 49.58c.15-.89-.48-1.71-1.4-1.85-.92-.13-1.78.47-1.92 1.35-.89 5.47-5.89 9.58-11.65 9.58-5.77 0-10.78-4.12-11.66-9.58-.14-.89-1-1.49-1.92-1.35s-1.55.96-1.4 1.84c1.06 6.61 6.52 11.53 13.29 12.24v4.95h-5.05c-.93 0-1.69.72-1.69 1.62 0 .89.76 1.62 1.69 1.62h13.47c.93 0 1.69-.73 1.69-1.62 0-.9-.76-1.62-1.69-1.62h-5.05v-4.95c6.76-.71 12.23-5.63 13.29-12.23"/></svg>